<?xml version="1.0" standalone="no"?>
<!DOCTYPE svg PUBLIC "-//W3C//DTD SVG 20010904//EN"
 "http://www.w3.org/TR/2001/REC-SVG-20010904/DTD/svg10.dtd">
<svg version="1.0" xmlns="http://www.w3.org/2000/svg"
 width="128.000000pt" height="128.000000pt" viewBox="0 0 128.000000 128.000000"
 preserveAspectRatio="xMidYMid meet">
<metadata>
Created by potrace 1.14, written by Peter Selinger 2001-2017
</metadata>
<g transform="translate(0.000000,128.000000) scale(0.100000,-0.100000)"
fill="#000000" stroke="none">
<path d="M803 1268 c-10 -13 -33 -147 -33 -193 0 -18 7 -26 26 -31 14 -4 30
-2 36 4 12 12 24 67 34 154 5 50 4 57 -14 67 -27 14 -37 14 -49 -1z"/>
<path d="M930 1070 c-73 -72 -80 -88 -55 -114 22 -21 41 -12 108 53 72 69 81
85 67 111 -18 34 -47 22 -120 -50z"/>
<path d="M425 1020 c-11 -4 -44 -33 -72 -63 -49 -52 -52 -58 -42 -84 34 -89
24 -116 -91 -233 -107 -109 -128 -144 -134 -217 -11 -146 116 -265 266 -250
52 5 54 4 153 -65 134 -95 161 -108 213 -104 64 5 122 68 122 131 0 55 -30 93
-127 162 l-95 67 27 23 c30 26 88 31 142 11 33 -12 34 -11 93 47 33 33 60 66
60 75 0 8 -21 37 -47 64 l-48 50 26 52 c75 147 -45 313 -210 290 -24 -3 -59
-15 -78 -27 l-34 -21 -28 28 c-60 62 -75 72 -96 64z"/>
<path d="M1138 955 c-2 -2 -25 -6 -53 -9 -27 -4 -59 -9 -70 -11 -11 -2 -25 -4
-32 -4 -7 -1 -17 -11 -24 -22 -9 -18 -8 -25 8 -40 18 -19 24 -19 113 -6 97 15
123 30 113 66 -4 16 -46 35 -55 26z"/>
</g>
</svg>
